<svg width="16" height="16" fill="none" xmlns="http://www.w3.org/2000/svg" stroke="currentColor" stroke-linecap="round">
    <style xmlns="http://www.w3.org/2000/svg">
        @media (prefers-color-scheme: dark) {

            path,
            ellipse {
                stroke: white;
            }
        }
    </style>
    <path
        d="M2.5 6.5V9a1 1 0 0 1-1 1v0a1 1 0 0 1-1-1V6.2c0-1 .8-1.7 1.7-1.7H8a1 1 0 0 1 1 1v0a1 1 0 0 1-1 1H5.7a.7.7 0 0 0-.7.7v2.4l1.1 4.6a1 1 0 0 1-.7 1.3v0a1 1 0 0 1-1.3-.8l-.4-2.3c0-.2-.4-.2-.4 0l-.6 2.3a1 1 0 0 1-1.3.8v0a1 1 0 0 1-.8-1.3l1.1-4" />
    <ellipse cx="3.5" cy="2.5" rx="1.5" ry="2" />
    <g opacity=".5">
        <path
            d="M13.5 6.5V9a1 1 0 0 0 1 1v0a1 1 0 0 0 1-1V6.2c0-1-.7-1.7-1.7-1.7H8a1 1 0 0 0-1 1v0a1 1 0 0 0 1 1h2.3c.4 0 .7.3.7.7v2.3a.7.7 0 0 1 0 .1l-1.1 4.6a1 1 0 0 0 .7 1.3v0a1 1 0 0 0 1.3-.8l.4-2.3c0-.2.4-.2.4 0l.6 2.3c.2.6.7 1 1.3.8v0c.6-.2 1-.8.8-1.3l-1.1-4" />
        <ellipse cx="12.5" cy="2.5" rx="1.5" ry="2" />
    </g>
</svg>