<svg width="16" height="16" xmlns="http://www.w3.org/2000/svg">
    <path fill-rule="evenodd" clip-rule="evenodd"
        d="M2.5 2.5c0-.455.139-.847.34-1.114.2-.267.438-.386.66-.386.222 0 .46.119.66.386.201.267.34.66.34 1.114 0 .455-.139.847-.34 1.114-.2.267-.438.386-.66.386-.222 0-.46-.119-.66-.386-.201-.267-.34-.66-.34-1.114ZM5.104 4c.253-.425.396-.947.396-1.5 0-.65-.197-1.258-.54-1.714C4.619.329 4.108 0 3.5 0S2.382.33 2.04.786C1.696 1.242 1.5 1.85 1.5 2.5c0 .56.146 1.088.405 1.516A2.166 2.166 0 0 0 0 6.166v2.988a1.5 1.5 0 0 0 1.105 1.448l-.943 3.412a1.552 1.552 0 1 0 2.999.802l.277-1.073.197.99a1.535 1.535 0 1 0 2.998-.664l-1.128-4.61a.166.166 0 0 1-.005-.04V7.167c0-.092.074-.166.166-.166h4.669c.092 0 .166.074.166.166V9.42a.164.164 0 0 1-.004.04l-1.128 4.608a1.536 1.536 0 1 0 2.998.666l.197-.992.278 1.073a1.553 1.553 0 1 0 3-.801l-.944-3.412a1.5 1.5 0 0 0 1.105-1.448V6.166a2.166 2.166 0 0 0-1.906-2.15c.26-.428.406-.956.406-1.516 0-.65-.197-1.258-.54-1.714C13.621.329 13.11 0 12.503 0c-.608 0-1.12.33-1.462.786-.342.456-.54 1.064-.54 1.714 0 .553.143 1.075.397 1.5H5.104Zm7.398 1H9.415a1.497 1.497 0 0 1 0 1h.92c.644 0 1.166.522 1.166 1.166V9.42c0 .093-.01.186-.033.277l-1.128 4.609a.536.536 0 1 0 1.046.232l.455-2.278c.145-.73 1.178-.759 1.364-.038l.605 2.344a.552.552 0 1 0 1.067-.286l-1.046-3.784a1.5 1.5 0 0 1-.829-1.342V6.59a.5.5 0 0 1 1 0v2.564a.5.5 0 0 0 1.001 0V6.166c0-.644-.522-1.166-1.166-1.166h-1.335Zm0-1c.222 0 .46-.119.661-.386.2-.267.34-.66.34-1.114 0-.455-.14-.847-.34-1.114-.2-.267-.44-.386-.66-.386-.223 0-.462.119-.662.386s-.34.66-.34 1.114c0 .455.14.847.34 1.114.2.267.44.386.661.386ZM7.5 5.5a.5.5 0 1 1 1 0 .5.5 0 0 1-1 0Zm-1 0c0-.175.03-.344.085-.5H2.166C1.522 5 1 5.522 1 6.166v2.988a.5.5 0 1 0 1 0V6.59a.5.5 0 0 1 1 0v2.564a1.5 1.5 0 0 1-.828 1.342L1.126 14.28a.552.552 0 1 0 1.067.285l.604-2.344c.186-.72 1.219-.692 1.365.038l.454 2.278a.535.535 0 1 0 1.045-.232l-1.128-4.61A1.166 1.166 0 0 1 4.5 9.42V7.166C4.5 6.522 5.022 6 5.666 6h.92a1.498 1.498 0 0 1-.086-.5Z" />
</svg>